<?xml version="1.0" encoding="utf-8"?>
<!-- Generator: Adobe Illustrator 15.0.2, SVG Export Plug-In . SVG Version: 6.00 Build 0)  -->
<!DOCTYPE svg PUBLIC "-//W3C//DTD SVG 1.1//EN" "http://www.w3.org/Graphics/SVG/1.1/DTD/svg11.dtd">
<svg version="1.1" id="Layer_1" xmlns="http://www.w3.org/2000/svg" xmlns:xlink="http://www.w3.org/1999/xlink" x="0px" y="0px"
	 width="30.858px" height="30.807px" viewBox="0 0 30.858 30.807" enable-background="new 0 0 30.858 30.807" xml:space="preserve">
<path fill="#010101" d="M11.328,10.012h-0.182c-0.068,2.093-0.068,2.32-0.114,2.593l-0.682,5.529h1.91l-0.796-5.574
	C11.374,11.945,11.351,11.331,11.328,10.012z M19.198,8.919h-1.092v4.961h1.002c1.068,0,1.115-0.479,1.115-3.141
	C20.224,8.965,20.108,8.919,19.198,8.919z M29.037,16.143l1.821-1.691l-2.005-1.467l1.382-2.066l-2.289-0.967l0.868-2.328
	l-2.451-0.412l0.308-2.467l-2.48,0.164l-0.268-2.472l-2.376,0.733l-0.831-2.343l-2.143,1.259L17.224,0L15.43,1.72L13.635,0
	l-1.35,2.087l-2.143-1.259l-0.83,2.343L6.937,2.438L6.668,4.909L4.188,4.745l0.307,2.467L2.044,7.624l0.869,2.328l-2.29,0.967
	l1.382,2.066L0,14.452l1.821,1.691l-1.613,1.891L2.37,19.26l-1.132,2.213l2.386,0.691l-0.592,2.416l2.481,0.125L5.495,27.19
	l2.443-0.451l0.555,2.424l2.274-1.004l1.098,2.23l1.982-1.5l1.582,1.918l1.581-1.918l1.982,1.5l1.099-2.23l2.273,1.004l0.555-2.424
	l2.444,0.451l-0.02-2.484l2.481-0.125l-0.592-2.416l2.387-0.691l-1.133-2.213l2.162-1.227L29.037,16.143z M12.943,23.047
	l-0.409-2.957h-2.411l-0.364,2.957H7.71L9.962,6.985h2.571l2.479,16.062H12.943z M20.45,23.047
	c-0.182-0.932-0.342-1.729-0.342-3.367v-1.137c0-0.615-0.021-1.889-0.271-2.412c-0.252-0.479-0.502-0.479-1.752-0.479v7.395h-2.117
	V6.985h3.458c2.594,0,2.889,0.705,2.889,3.891c0,2.821-0.068,3.981-1.797,3.959v0.091c1.523,0.183,1.729,1.045,1.729,3.184v1.752
	c0,1.934,0.047,2.23,0.41,3.186H20.45z"/>
</svg>
