<?xml version="1.0" encoding="UTF-8" standalone="no"?>
<svg width="32px" height="32px" viewBox="0 0 32 32" version="1.1" xmlns="http://www.w3.org/2000/svg" xmlns:xlink="http://www.w3.org/1999/xlink" xmlns:sketch="http://www.bohemiancoding.com/sketch/ns">
    <defs></defs>
    <g id="Page 1" fill="#D8D8D8" fill-rule="evenodd">
        <g id="32">
            <path d="M7,6 L7,25 L24,25 L24,6 L7,6 Z M7,6" id="Rectangle 1" fill="#FFFFFF"></path>
            <g id="Layer_1" fill="#000000">
                <path d="M11.6934194,10.3349677 L11.5055484,10.3349677 C11.4353548,12.4954839 11.4353548,12.7298065 11.387871,13.0116129 L10.683871,18.7189677 L12.6554839,18.7189677 L11.8338065,12.9651613 C11.7409032,12.3303226 11.7171613,11.6965161 11.6934194,10.3349677 L11.6934194,10.3349677 Z M19.8172903,9.20670968 L18.6900645,9.20670968 L18.6900645,14.3277419 L19.7243871,14.3277419 C20.8268387,14.3277419 20.8753548,13.8332903 20.8753548,11.0854194 C20.8763871,9.25419355 20.7566452,9.20670968 19.8172903,9.20670968 L19.8172903,9.20670968 Z M29.9736774,16.6637419 L31.8534194,14.9181935 L29.7837419,13.403871 L31.2103226,11.2712258 L28.8474839,10.2730323 L29.7434839,7.86993548 L27.2134194,7.44464516 L27.5313548,4.89806452 L24.9713548,5.06735484 L24.6947097,2.5156129 L22.2420645,3.27225806 L21.3842581,0.853677419 L19.172129,2.15329032 L17.7796129,0 L15.9277419,1.77548387 L14.0748387,0 L12.6812903,2.15432258 L10.4691613,0.854709677 L9.6123871,3.27329032 L7.16077419,2.51664516 L6.88309677,5.06735484 L4.32309677,4.89806452 L4.64,7.44464516 L2.10993548,7.86993548 L3.00696774,10.2730323 L0.643096774,11.2712258 L2.06967742,13.403871 L0,14.9181935 L1.87974194,16.6637419 L0.214709677,18.6157419 L2.44645161,19.8812903 L1.27793548,22.1656774 L3.74090323,22.8789677 L3.12980645,25.3729032 L5.69083871,25.5019355 L5.67225806,28.0670968 L8.19406452,27.6015484 L8.76696774,30.1037419 L11.1143226,29.0673548 L12.2477419,31.3692903 L14.2936774,29.8209032 L15.9267097,31.8007742 L17.5587097,29.8209032 L19.6046452,31.3692903 L20.7390968,29.0673548 L23.0854194,30.1037419 L23.6583226,27.6015484 L26.1811613,28.0670968 L26.1605161,25.5029677 L28.7215484,25.3739355 L28.1104516,22.88 L30.5744516,22.1667097 L29.4049032,19.8823226 L31.6366452,18.6157419 L29.9736774,16.6637419 L29.9736774,16.6637419 Z M13.3605161,23.7904516 L12.9383226,20.7380645 L10.4495484,20.7380645 L10.0738065,23.7904516 L7.95870968,23.7904516 L10.2833548,7.21032258 L12.9372903,7.21032258 L15.4962581,23.7904516 L13.3605161,23.7904516 L13.3605161,23.7904516 Z M21.1096774,23.7904516 C20.9218065,22.8283871 20.7566452,22.0056774 20.7566452,20.3148387 L20.7566452,19.1411613 C20.7566452,18.5063226 20.7349677,17.1912258 20.4769032,16.6513548 C20.2167742,16.1569032 19.9587097,16.1569032 18.6683871,16.1569032 L18.6683871,23.7904516 L16.4830968,23.7904516 L16.4830968,7.21032258 L20.0526452,7.21032258 C22.7303226,7.21032258 23.0348387,7.93806452 23.0348387,11.2268387 C23.0348387,14.1388387 22.9646452,15.3362581 21.179871,15.3135484 L21.179871,15.4074839 C22.752,15.5963871 22.9646452,16.4861935 22.9646452,18.6941935 L22.9646452,20.5027097 C22.9646452,22.4990968 23.0131613,22.8046452 23.387871,23.7914839 L21.1096774,23.7914839 L21.1096774,23.7904516 Z M21.1096774,23.7904516" id="Shape" fill="#010101"></path>
            </g>
        </g>
    </g>
</svg>